<svg width="64" height="64" viewBox="0 0 64 64" fill="none" xmlns="http://www.w3.org/2000/svg">
<circle cx="32" cy="32" r="32" fill="#22C55E"/>
<path d="M15.23 27.9852C14.634 32.5472 14.2789 37.1375 14.1662 41.737C20.4035 44.3425 26.3757 47.5423 32 51.292C37.625 47.5422 43.5979 44.3424 49.836 41.737C49.7231 37.1376 49.368 32.5472 48.7722 27.9852M15.2278 27.9852C13.3247 27.3453 11.4043 26.758 9.46883 26.2237C16.5395 21.2661 24.0873 17.0266 32 13.5682C39.9126 17.0259 47.4604 21.2647 54.5312 26.2215C52.5898 26.7588 50.668 27.3482 48.7722 27.9852M15.2278 27.9852C21.0099 29.9289 26.62 32.351 32 35.2262C37.3793 32.3511 42.9887 29.9291 48.77 27.9852M20.625 38.5V30.5375C24.3013 28.2524 28.0985 26.1679 32 24.2932M16.8182 49.3182C18.0271 48.1122 18.9858 46.6792 19.6391 45.1015C20.2924 43.5238 20.6275 41.8326 20.625 40.125V36.875M20.625 38.5C21.056 38.5 21.4693 38.3288 21.774 38.024C22.0788 37.7193 22.25 37.306 22.25 36.875C22.25 36.444 22.0788 36.0307 21.774 35.726C21.4693 35.4212 21.056 35.25 20.625 35.25C20.194 35.25 19.7807 35.4212 19.476 35.726C19.1712 36.0307 19 36.444 19 36.875C19 37.306 19.1712 37.7193 19.476 38.024C19.7807 38.3288 20.194 38.5 20.625 38.5Z" stroke="white" stroke-width="1.5" stroke-linecap="round" stroke-linejoin="round"/>
</svg>
